<svg viewBox="0 0 20 20" fill="none" xmlns="http://www.w3.org/2000/svg">
<path fill-rule="evenodd" clip-rule="evenodd" d="M19.2503 0.849939C19.2503 0.849939 14.1512 0.713599 10.1737 3.40043C9.07929 4.13849 8.01038 5.13105 7.03236 6.18179L7.03599 6.17088L0.753394 7.647L3.58565 10.4793L3.61474 10.4829C2.9294 11.47 2.52401 12.1372 2.52401 12.1372L2.48947 14.8912L5.20902 17.6108L7.96311 17.5763C7.96311 17.5763 8.62845 17.1727 9.61556 16.4874L9.61738 16.511L12.4496 19.3432L13.9258 13.0606C14.9729 12.0863 15.9636 11.0192 16.6998 9.92662C19.3867 5.9491 19.2503 0.849939 19.2503 0.849939ZM13.5731 6.52718C14.4548 7.40885 14.4548 8.84134 13.5731 9.72302C12.6914 10.6047 11.2589 10.6047 10.3773 9.72302C9.49558 8.84134 9.49558 7.40885 10.3773 6.52718C11.2589 5.64551 12.6914 5.64551 13.5731 6.52718Z" fill="currentColor"/>
</svg>
