<svg viewBox="0 0 79 35" fill="none" xmlns="http://www.w3.org/2000/svg">
<path d="M12.6 16.096C13.016 16.096 13.368 16.24 13.656 16.528C13.96 16.816 14.112 17.168 14.112 17.584V19C10.784 19 9.064 19 8.952 19C7.352 18.888 5.92 18.44 4.656 17.656C3.408 16.856 2.456 15.856 1.8 14.656C1.144 13.456 0.816 12.168 0.816 10.792V2.584H2.352C2.768 2.584 3.12 2.736 3.408 3.04C3.712 3.328 3.864 3.672 3.864 4.072V10.792C3.864 12.28 4.392 13.536 5.448 14.56C6.52 15.584 7.824 16.096 9.36 16.096H12.6ZM19.3414 5.488C19.0534 5.488 18.8054 5.392 18.5974 5.2C18.4054 5.008 18.3094 4.768 18.3094 4.48V2.584H34.3414V4C34.3414 4.416 34.1894 4.768 33.8854 5.056C33.5814 5.344 33.2214 5.488 32.8054 5.488H19.3414ZM33.0454 16.096C33.4614 16.096 33.8134 16.24 34.1014 16.528C34.4054 16.816 34.5574 17.168 34.5574 17.584V19H18.3094V17.08C18.3094 16.808 18.4054 16.576 18.5974 16.384C18.7894 16.192 19.0214 16.096 19.2934 16.096H33.0454ZM28.4374 10.744C28.4374 11.16 28.2854 11.52 27.9814 11.824C27.6934 12.112 27.3334 12.256 26.9014 12.256H18.3094V10.336C18.3094 10.064 18.4054 9.832 18.5974 9.64C18.7894 9.432 19.0294 9.328 19.3174 9.328H28.4374V10.744ZM50.7296 2.584C51.0336 3.16 51.8416 4.688 53.1536 7.168C54.4816 9.632 55.8256 12.144 57.1856 14.704C58.5456 17.248 59.3056 18.68 59.4656 19H56.9456C56.3536 19 55.9216 18.744 55.6496 18.232L49.2656 6.28C44.4496 14.408 42.0416 18.472 42.0416 18.472C41.8496 18.824 41.5456 19 41.1296 19H38.3456C42.3296 12.168 45.2816 7.088 47.2016 3.76C47.4096 3.392 47.6896 3.104 48.0416 2.896C48.3936 2.688 48.7776 2.584 49.1936 2.584H50.7296ZM64.6294 10.744C64.6294 11.16 64.4774 11.52 64.1734 11.824C63.8854 12.112 63.5334 12.256 63.1174 12.256H61.5814V2.584H64.1734C64.5574 2.584 64.8614 2.736 65.0854 3.04L74.0374 14.56V4.096C74.0374 3.68 74.1894 3.328 74.4934 3.04C74.7974 2.736 75.1574 2.584 75.5734 2.584H77.1094V19H74.4934C74.1254 19 73.8214 18.856 73.5814 18.568L64.6294 7.048V10.744Z" fill="currentColor"/>
<path d="M29.769 26.609H27.771V32H26.232V26.609H24.243V25.304H29.769V26.609ZM35.5893 32.162C33.5553 32.162 32.2773 30.677 32.2773 28.679C32.2773 26.672 33.5553 25.187 35.5893 25.187C37.6143 25.187 38.8923 26.672 38.8923 28.679C38.8923 30.677 37.6143 32.162 35.5893 32.162ZM35.5983 30.902C36.7503 30.902 37.3263 29.939 37.3263 28.679C37.3263 27.41 36.7503 26.429 35.5983 26.429C34.4373 26.429 33.8433 27.41 33.8433 28.679C33.8433 29.939 34.4373 30.902 35.5983 30.902ZM45.0287 32.162C42.9947 32.162 41.7167 30.677 41.7167 28.679C41.7167 26.672 42.9947 25.187 45.0287 25.187C47.0537 25.187 48.3317 26.672 48.3317 28.679C48.3317 30.677 47.0537 32.162 45.0287 32.162ZM45.0377 30.902C46.1897 30.902 46.7657 29.939 46.7657 28.679C46.7657 27.41 46.1897 26.429 45.0377 26.429C43.8767 26.429 43.2827 27.41 43.2827 28.679C43.2827 29.939 43.8767 30.902 45.0377 30.902ZM51.4352 32V25.304H52.9652V30.686H56.0522V32H51.4352ZM63.3018 32L61.2588 28.958L60.6468 29.606V32H59.1168V25.304H60.6468V26.402C60.6468 27.005 60.6108 27.617 60.5928 27.986L63.0948 25.304H64.9308L62.3478 27.995L65.0928 32H63.3018ZM67.9938 32V25.304H69.5328V32H67.9938ZM78.1264 26.609H76.1284V32H74.5894V26.609H72.6004V25.304H78.1264V26.609Z" fill="currentColor"/>
</svg>
