<svg xmlns="http://www.w3.org/2000/svg" fill="none" viewBox="0 0 80 31" className="lil-logo" > <path fill="#000" d="M12.6 16.096q.624 0 1.056.432.456.432.456 1.056V19h-5.16q-2.4-.168-4.296-1.344-1.872-1.2-2.856-3a7.9 7.9 0 0 1-.984-3.864V2.584h1.536q.624 0 1.056.456.456.432.456 1.032v6.72q0 2.232 1.584 3.768 1.608 1.536 3.912 1.536zm6.741-10.608a1.06 1.06 0 0 1-.744-.288.98.98 0 0 1-.288-.72V2.584h16.032V4q0 .624-.456 1.056a1.52 1.52 0 0 1-1.08.432zm13.704 10.608q.624 0 1.056.432.456.432.456 1.056V19H18.31v-1.92q0-.408.288-.696a.95.95 0 0 1 .696-.288zm-4.608-5.352q0 .624-.456 1.08a1.47 1.47 0 0 1-1.08.432H18.31v-1.92q0-.408.288-.696a.94.94 0 0 1 .72-.312h9.12zm22.293-8.16 2.424 4.584a1426 1426 0 0 1 4.032 7.536q2.04 3.816 2.28 4.296h-2.52q-.888 0-1.296-.768L49.266 6.28l-7.224 12.192q-.288.528-.912.528h-2.784a4177 4177 0 0 0 8.856-15.24q.312-.552.84-.864a2.2 2.2 0 0 1 1.152-.312zm13.9 8.16q0 .624-.457 1.08-.432.432-1.056.432h-1.536V2.584h2.592q.576 0 .912.456l8.952 11.52V4.096q0-.624.456-1.056a1.48 1.48 0 0 1 1.08-.456h1.536V19h-2.616q-.552 0-.912-.432L64.63 7.048zM2.378 29v-4.464h1.026V29zm3.287 0v-4.464H6.71l1.176 1.938c.264.45.612 1.176.612 1.176h.012s-.054-.798-.054-1.308v-1.806h.978V29h-1.05L7.22 27.086c-.27-.45-.618-1.194-.618-1.194H6.59s.054.804.054 1.314V29zm6.018 0v-4.464h1.044l1.176 1.938c.264.45.612 1.176.612 1.176h.012s-.054-.798-.054-1.308v-1.806h.978V29H14.4l-1.164-1.914c-.27-.45-.618-1.194-.618-1.194h-.012s.054.804.054 1.314V29zm8.04.108c-1.357 0-2.209-.99-2.209-2.322 0-1.338.852-2.328 2.208-2.328 1.35 0 2.202.99 2.202 2.328 0 1.332-.852 2.322-2.202 2.322m.005-.84c.768 0 1.152-.642 1.152-1.482 0-.846-.384-1.5-1.152-1.5-.774 0-1.17.654-1.17 1.5 0 .84.396 1.482 1.17 1.482m5.206.732-1.476-4.464h1.062l.66 2.148c.15.492.306 1.314.306 1.314h.012s.156-.822.3-1.314l.654-2.148h1.032L26.008 29zm5.51-2.418-.276.834h1.146l-.27-.834c-.192-.612-.288-1.188-.288-1.188h-.012s-.156.75-.3 1.188M31.83 29l-.276-.852h-1.62l-.282.852h-1.026l1.608-4.464h1.062L32.91 29zm5.961-3.594H36.46V29h-1.026v-3.594h-1.326v-.87h3.684zM39.831 29v-4.464h1.026V29zm5.31.108c-1.357 0-2.209-.99-2.209-2.322 0-1.338.852-2.328 2.208-2.328 1.35 0 2.202.99 2.202 2.328 0 1.332-.852 2.322-2.202 2.322m.005-.84c.768 0 1.152-.642 1.152-1.482 0-.846-.384-1.5-1.152-1.5-.774 0-1.17.654-1.17 1.5 0 .84.396 1.482 1.17 1.482m4.265.732v-4.464h1.044l1.176 1.938c.264.45.612 1.176.612 1.176h.012s-.054-.798-.054-1.308v-1.806h.978V29h-1.05l-1.164-1.914c-.27-.45-.618-1.194-.618-1.194h-.012s.054.804.054 1.314V29zm8.965 0v-4.464h1.02v3.588h2.058V29zm6.68-2.418-.276.834h1.146l-.27-.834a10 10 0 0 1-.288-1.188h-.012s-.156.75-.3 1.188M66.442 29l-.276-.852h-1.62l-.282.852h-1.026l1.608-4.464h1.062L67.522 29zm3.032 0v-4.464h2.112c.462 0 .816.108 1.044.306.246.216.378.498.378.852q0 .667-.72.894v.024c.576.138.894.54.894 1.086 0 .426-.156.75-.438.972-.264.216-.63.33-1.104.33zm1.014-2.67h.954c.348 0 .582-.168.582-.498 0-.324-.222-.504-.57-.504h-.966zm0 1.866h1.044c.204 0 .366-.06.474-.162a.55.55 0 0 0 .162-.408c0-.39-.282-.582-.654-.582h-1.026zm6.556.912c-1.194 0-1.95-.552-1.98-1.518h1.032c.054.486.372.702.948.702.396 0 .768-.156.768-.522 0-.39-.378-.474-1.026-.624-.87-.198-1.578-.414-1.578-1.344 0-.924.756-1.344 1.74-1.344s1.68.456 1.746 1.332h-1.002c-.054-.348-.33-.552-.774-.552-.42 0-.702.18-.702.462 0 .348.384.426 1.086.582.804.18 1.542.444 1.542 1.386 0 .924-.78 1.44-1.8 1.44"></path></svg>